<svg id="Layer_1" enable-background="new 0 0 512 512" height="512" viewBox="0 0 512 512" width="512" xmlns="http://www.w3.org/2000/svg"><g><g><path d="m426.886 232.532c-12.543 0-24.448 2.745-35.179 7.629l-14.177-23.397 25.715-15.636c2.269-1.379 3.896-3.604 4.522-6.184s.201-5.303-1.182-7.569l-20.84-34.154c-2.872-4.708-9.017-6.203-13.731-3.336l-25.157 15.297-11.737-21.097c-11.735-21.657-36.839-34.585-67.166-34.585-5.522 0-10 4.477-10 10s4.478 10 10 10c29.573 0 42.956 14.053 47.929 21.409-5.341-.91-11.279-1.417-17.883-1.417-22.887 0-43.194 16.37-53.263 26.128-9.786 9.484-20.955 23.716-24.215 36.04l-42.68 21.935c-4.74-5.225-9.919-10.07-15.474-14.425-3.724-2.914-7.617-5.616-11.644-8.094l13.761-13.737c2.43 1.969 4.838 4.052 7.222 6.262 1.858 1.723 4.291 2.667 6.8 2.667.354 0 19.757-2.057 19.757-2.057 5.492-.587 9.468-5.516 8.88-11.007s-5.519-9.466-11.007-8.879l-14.249 1.524c-24.414-21.439-51.223-32.303-79.749-32.303-5.522 0-10 4.477-10 10s4.478 10 10 10c15.748 0 30.985 4.132 45.542 12.308l-15.76 15.733c-6.026-2.428-12.24-4.395-18.562-5.848-18.88-4.35-39.05-4.24-57.9.33-5.36 1.3-8.66 6.72-7.36 12.08 1.091 4.5 5.091 7.64 9.721 7.64.79 0 1.58-.09 2.359-.28 8.11-1.97 16.5-2.97 24.931-2.97 27.924 0 54.341 10.961 73.982 30.369l-19.299 9.546c-14.802-12.421-33.876-19.922-54.679-19.922-46.932 0-85.114 38.123-85.114 84.984s38.182 84.984 85.114 84.984c30.285 0 56.906-15.886 71.991-39.741h130.567c5.522 0 10-4.478 10-10 0-50.449 50.816-104.545 51.325-105.082 2.008-2.108 2.996-4.986 2.709-7.883-.288-2.896-1.823-5.524-4.206-7.197l-17.417-12.225c7.717-3.367 14.029-7.691 18.545-12.71l25.974 42.867c-19.961 15.566-32.831 39.797-32.831 66.987 0 46.86 38.182 84.984 85.114 84.984s85.115-38.124 85.115-84.984-38.182-84.984-85.114-84.984zm-194.92-4.245h53.79l-38.435 45.078-16.653-44.423zm-57.017 29.092 16.604 45.388h-22.635c-2.274-12.911-7.468-24.828-14.889-35.04zm-26.43 45.388h-34.536l23.622-23.646c5.126 6.96 8.888 14.973 10.914 23.646zm-63.405 79.733c-35.904 0-65.114-29.152-65.114-64.984s29.21-64.983 65.114-64.983c14.312 0 27.552 4.643 38.311 12.484l-37.711 37.751h-22.713c-5.522 0-10 4.478-10 10v39.992c0 5.522 4.478 10 10 10h68.78c-11.836 12.162-28.375 19.74-46.667 19.74zm203.775-79.28-24.314 6.079c-5.357 1.339-8.615 6.769-7.275 12.127 1.136 4.544 5.213 7.576 9.693 7.576.803 0 14.239-3.252 14.239-3.252-1.411 5.6-2.469 11.285-3.046 17.009h-205.185v-19.992h132.857c3.266 0 6.325-1.595 8.196-4.271 1.871-2.677 2.317-6.098 1.195-9.165l-22.319-61.014 19.812-10.218 21.811 58.182c1.243 3.316 5.258 5.938 8.5 6.415 3.32.366 6.555-1.188 8.473-3.437l58.457-68.561 16.898 11.861c-9.795 11.73-26.766 34.173-37.992 60.661zm-.904-94.933h-44.196c3.092-5.143 7.964-11.614 14.868-18.305 13.238-12.831 27.946-20.49 39.344-20.49 23.317 0 38.385 7.614 38.385 19.397 0 7.723-19.304 19.398-48.401 19.398zm79.187-8.631-10.423-17.082 17.125-10.413 10.423 17.082zm59.714 182.844c-35.904 0-65.114-29.152-65.114-64.984 0-19.947 9.059-37.815 23.279-49.745l33.283 54.928c1.881 3.104 5.181 4.819 8.563 4.819 1.765 0 3.553-.468 5.173-1.449 4.723-2.862 6.231-9.012 3.37-13.735l-33.279-54.921c7.629-3.138 15.976-4.88 24.726-4.88 35.904 0 65.114 29.151 65.114 64.983s-29.211 64.984-65.115 64.984z"/><circle cx="17.259" cy="224.6" r="10"/></g></g></svg>